<svg width="100" height="100" viewBox="0 0 100 100" fill="none" xmlns="http://www.w3.org/2000/svg">
<path d="M50 0C22.4303 0 0 22.4303 0 50C0 77.5697 22.4303 100 50 100C77.5697 100 100 77.5697 100 50C100 22.4303 77.5697 0 50 0ZM37.9279 28.0817C40.9736 24.8534 45.2596 23.0769 50 23.0769C54.7404 23.0769 58.988 24.8654 62.0457 28.1106C65.1442 31.399 66.6514 35.8173 66.2957 40.5673C65.5841 50 58.2764 57.6923 50 57.6923C41.7236 57.6923 34.4014 50 33.7043 40.5649C33.351 35.7764 34.8558 31.3438 37.9279 28.0817ZM50 92.3077C44.3521 92.3114 38.7609 91.181 33.5581 88.9834C28.3552 86.7858 23.6466 83.5658 19.7115 79.5144C21.9653 76.3004 24.8369 73.5677 28.1587 71.476C34.2861 67.5481 42.0409 65.3846 50 65.3846C57.9591 65.3846 65.7139 67.5481 71.8341 71.476C75.1586 73.5667 78.0328 76.2995 80.2885 79.5144C76.3537 83.5663 71.6452 86.7865 66.4422 88.9842C61.2393 91.1818 55.648 92.312 50 92.3077Z" fill="white"/>
</svg>
